# WaveFront *.obj file (generated by Autodesk ATF)

mtllib S.mtl

g Body1

v 30.000000 20.000000 0.000000
v 30.000000 -10.000000 0.000000
v 30.000000 -10.000000 10.000000
v 30.000000 20.000000 10.000000
v 60.000000 20.000000 0.000000
v 60.000000 20.000000 10.000000
v 60.000000 10.000000 0.000000
v 60.000000 10.000000 10.000000
v 40.000000 10.000000 0.000000
v 40.000000 10.000000 10.000000
v 40.000000 0.000000 0.000000
v 40.000000 0.000000 10.000000
v 60.000000 0.000000 0.000000
v 60.000000 0.000000 10.000000
v 60.000000 -30.000000 0.000000
v 60.000000 -30.000000 10.000000
v 30.000000 -30.000000 0.000000
v 30.000000 -30.000000 10.000000
v 30.000000 -20.000000 0.000000
v 30.000000 -20.000000 10.000000
v 50.000000 -20.000000 0.000000
v 50.000000 -20.000000 10.000000
v 50.000000 -10.000000 0.000000
v 50.000000 -10.000000 10.000000
vt -0.000000 0.000000 0.000000
vt 3.000000 0.000000 0.000000
vt -0.000000 1.000000 0.000000
vt 3.000000 1.000000 0.000000
vt -0.000000 0.000000 0.000000
vt 3.000000 0.000000 0.000000
vt -0.000000 1.000000 0.000000
vt 3.000000 1.000000 0.000000
vt 0.000000 0.000000 0.000000
vt 1.000000 0.000000 0.000000
vt 0.000000 1.000000 0.000000
vt 1.000000 1.000000 0.000000
vt 0.000000 0.000000 0.000000
vt 2.000000 0.000000 0.000000
vt 0.000000 1.000000 0.000000
vt 2.000000 1.000000 0.000000
vt 0.000000 0.000000 0.000000
vt 1.000000 0.000000 0.000000
vt 0.000000 1.000000 0.000000
vt 1.000000 1.000000 0.000000
vt -0.000000 0.000000 0.000000
vt 2.000000 0.000000 0.000000
vt -0.000000 1.000000 0.000000
vt 2.000000 1.000000 0.000000
vt 0.000000 0.000000 0.000000
vt 3.000000 0.000000 0.000000
vt 0.000000 1.000000 0.000000
vt 3.000000 1.000000 0.000000
vt 0.000000 0.000000 0.000000
vt 3.000000 0.000000 0.000000
vt 0.000000 1.000000 0.000000
vt 3.000000 1.000000 0.000000
vt -0.000000 0.000000 0.000000
vt 1.000000 0.000000 0.000000
vt -0.000000 1.000000 0.000000
vt 1.000000 1.000000 0.000000
vt 0.000000 0.000000 0.000000
vt 2.000000 0.000000 0.000000
vt 0.000000 1.000000 0.000000
vt 2.000000 1.000000 0.000000
vt 0.000000 0.000000 0.000000
vt 1.000000 0.000000 0.000000
vt 0.000000 1.000000 0.000000
vt 1.000000 1.000000 0.000000
vt 0.000000 0.000000 0.000000
vt 2.000000 0.000000 0.000000
vt 0.000000 1.000000 0.000000
vt 2.000000 1.000000 0.000000
vt 0.500000 -0.500000 0.000000
vt -0.500000 0.500000 0.000000
vt -1.500000 -0.500000 0.000000
vt -0.500000 1.500000 0.000000
vt -1.500000 2.500000 0.000000
vt 1.500000 2.500000 0.000000
vt 1.500000 1.500000 0.000000
vt 0.500000 -1.500000 0.000000
vt 1.500000 -2.500000 0.000000
vt 1.500000 0.500000 0.000000
vt -1.500000 -1.500000 0.000000
vt -1.500000 -2.500000 0.000000
vt 1.500000 -0.500000 0.000000
vt 0.500000 0.500000 0.000000
vt -0.500000 -0.500000 0.000000
vt -1.500000 0.500000 0.000000
vt -1.500000 -2.500000 0.000000
vt 0.500000 1.500000 0.000000
vt 1.500000 2.500000 0.000000
vt -1.500000 2.500000 0.000000
vt -1.500000 1.500000 0.000000
vt -0.500000 -1.500000 0.000000
vt 1.500000 -2.500000 0.000000
vt 1.500000 -1.500000 0.000000
vn -0.100000 0.000000 0.000000
vn -0.100000 0.000000 0.000000
vn -0.100000 0.000000 0.000000
vn -0.100000 0.000000 0.000000
vn 0.000000 0.100000 0.000000
vn 0.000000 0.100000 0.000000
vn 0.000000 0.100000 0.000000
vn 0.000000 0.100000 0.000000
vn 0.100000 0.000000 0.000000
vn 0.100000 0.000000 0.000000
vn 0.100000 0.000000 0.000000
vn 0.100000 0.000000 0.000000
vn 0.000000 -0.100000 0.000000
vn 0.000000 -0.100000 0.000000
vn 0.000000 -0.100000 0.000000
vn 0.000000 -0.100000 0.000000
vn 0.100000 0.000000 0.000000
vn 0.100000 0.000000 0.000000
vn 0.100000 0.000000 0.000000
vn 0.100000 0.000000 0.000000
vn 0.000000 0.100000 0.000000
vn 0.000000 0.100000 0.000000
vn 0.000000 0.100000 0.000000
vn 0.000000 0.100000 0.000000
vn 0.100000 0.000000 0.000000
vn 0.100000 0.000000 0.000000
vn 0.100000 0.000000 0.000000
vn 0.100000 0.000000 0.000000
vn 0.000000 -0.100000 0.000000
vn 0.000000 -0.100000 0.000000
vn 0.000000 -0.100000 0.000000
vn 0.000000 -0.100000 0.000000
vn -0.100000 0.000000 0.000000
vn -0.100000 0.000000 0.000000
vn -0.100000 0.000000 0.000000
vn -0.100000 0.000000 0.000000
vn 0.000000 0.100000 0.000000
vn 0.000000 0.100000 0.000000
vn 0.000000 0.100000 0.000000
vn 0.000000 0.100000 0.000000
vn -0.100000 0.000000 0.000000
vn -0.100000 0.000000 0.000000
vn -0.100000 0.000000 0.000000
vn -0.100000 0.000000 0.000000
vn 0.000000 -0.100000 0.000000
vn 0.000000 -0.100000 0.000000
vn 0.000000 -0.100000 0.000000
vn 0.000000 -0.100000 0.000000
vn 0.000000 0.000000 0.100000
vn 0.000000 0.000000 0.100000
vn 0.000000 0.000000 0.100000
vn 0.000000 0.000000 0.100000
vn 0.000000 0.000000 0.100000
vn 0.000000 0.000000 0.100000
vn 0.000000 0.000000 0.100000
vn 0.000000 0.000000 0.100000
vn 0.000000 0.000000 0.100000
vn 0.000000 0.000000 0.100000
vn 0.000000 0.000000 0.100000
vn 0.000000 0.000000 0.100000
vn -0.000000 0.000000 -0.100000
vn -0.000000 0.000000 -0.100000
vn -0.000000 0.000000 -0.100000
vn -0.000000 0.000000 -0.100000
vn -0.000000 0.000000 -0.100000
vn -0.000000 0.000000 -0.100000
vn -0.000000 0.000000 -0.100000
vn -0.000000 0.000000 -0.100000
vn -0.000000 0.000000 -0.100000
vn -0.000000 0.000000 -0.100000
vn -0.000000 0.000000 -0.100000
vn -0.000000 0.000000 -0.100000
usemtl Steel_-_Satin
f 1/1/1 2/2/2 4/3/3
f 4/3/3 2/2/2 3/4/4
f 5/5/5 1/6/6 6/7/7
f 6/7/7 1/6/6 4/8/8
f 7/9/9 5/10/10 8/11/11
f 8/11/11 5/10/10 6/12/12
f 9/13/13 7/14/14 10/15/15
f 10/15/15 7/14/14 8/16/16
f 11/17/17 9/18/18 12/19/19
f 12/19/19 9/18/18 10/20/20
f 13/21/21 11/22/22 14/23/23
f 14/23/23 11/22/22 12/24/24
f 15/25/25 13/26/26 16/27/27
f 16/27/27 13/26/26 14/28/28
f 17/29/29 15/30/30 18/31/31
f 18/31/31 15/30/30 16/32/32
f 19/33/33 17/34/34 20/35/35
f 20/35/35 17/34/34 18/36/36
f 21/37/37 19/38/38 22/39/39
f 22/39/39 19/38/38 20/40/40
f 23/41/41 21/42/42 24/43/43
f 24/43/43 21/42/42 22/44/44
f 2/45/45 23/46/46 3/47/47
f 3/47/47 23/46/46 24/48/48
f 24/49/49 12/50/50 3/51/51
f 3/51/51 12/50/50 10/52/52
f 3/51/51 10/52/52 4/53/53
f 4/53/53 10/52/52 6/54/54
f 6/54/54 10/52/52 8/55/55
f 22/56/56 16/57/57 24/49/49
f 24/49/49 16/57/57 14/58/58
f 24/49/49 14/58/58 12/50/50
f 20/59/59 18/60/60 22/56/56
f 22/56/56 18/60/60 16/57/57
f 2/61/61 11/62/62 23/63/63
f 23/63/63 11/62/62 13/64/64
f 23/63/63 13/64/64 15/65/65
f 11/62/62 2/61/61 9/66/66
f 9/66/66 2/61/61 1/67/67
f 9/66/66 1/67/67 5/68/68
f 5/68/68 7/69/69 9/66/66
f 23/63/63 15/65/65 21/70/70
f 21/70/70 15/65/65 17/71/71
f 21/70/70 17/71/71 19/72/72
# 24 vertices
# 72 texture params
# 72 normals
# 44 facets

# 1 groups
