<?xml version="1.0" encoding="UTF-8"?>
<svg version="1.1" xmlns="http://www.w3.org/2000/svg" width="89" height="89">
<path d="M0 0 C25.41 0 50.82 0 77 0 C77 3.96 77 7.92 77 12 C80.96 12 84.92 12 89 12 C89 20.91 89 29.82 89 39 C85.04 39 81.08 39 77 39 C77 42.96 77 46.92 77 51 C60.5 51 44 51 27 51 C27 63.54 27 76.08 27 89 C18.09 89 9.18 89 0 89 C0 59.63 0 30.26 0 0 Z M27 14 C27 21.59 27 29.18 27 37 C38.88 37 50.76 37 63 37 C63 29.41 63 21.82 63 14 C51.12 14 39.24 14 27 14 Z " fill="#000000" transform="translate(0,0)"/>
</svg>
