<?xml version="1.0" encoding="UTF-8"?>
<svg version="1.1" xmlns="http://www.w3.org/2000/svg" width="89" height="89">
<path d="M0 0 C21.12 0 42.24 0 64 0 C64 3.96 64 7.92 64 12 C67.96 12 71.92 12 76 12 C76 16.62 76 21.24 76 26 C67.42 26 58.84 26 50 26 C50 22.04 50 18.08 50 14 C38.12 14 26.24 14 14 14 C14 17.63 14 21.26 14 25 C17.96 25 21.92 25 26 25 C26 28.96 26 32.92 26 37 C34.25 37 42.5 37 51 37 C51 41.29 51 45.58 51 50 C55.29 50 59.58 50 64 50 C64 53.96 64 57.92 64 62 C67.96 62 71.92 62 76 62 C76 66.62 76 71.24 76 76 C72.04 76 68.08 76 64 76 C64 80.29 64 84.58 64 89 C42.88 89 21.76 89 0 89 C0 84.71 0 80.42 0 76 C-4.29 76 -8.58 76 -13 76 C-13 71.38 -13 66.76 -13 62 C-4.09 62 4.82 62 14 62 C14 66.29 14 70.58 14 75 C25.88 75 37.76 75 50 75 C50 71.37 50 67.74 50 64 C45.71 64 41.42 64 37 64 C37 59.71 37 55.42 37 51 C28.75 51 20.5 51 12 51 C12 47.04 12 43.08 12 39 C8.04 39 4.08 39 0 39 C0 34.71 0 30.42 0 26 C-4.29 26 -8.58 26 -13 26 C-13 21.38 -13 16.76 -13 12 C-8.71 12 -4.42 12 0 12 C0 8.04 0 4.08 0 0 Z " fill="#000000" transform="translate(13,0)"/>
</svg>
